<svg xmlns="http://www.w3.org/2000/svg" width="516.872" height="501.626" viewBox="0 0 516.872 501.626"><defs><style>.a{fill:#f0f0f0;}.b{fill:#ffb6b6;}.c{fill:#2f2e41;}.d{fill:#2e2e2e;}.e{fill:#f2545b;}.f{fill:#fff;}.g{fill:#e4e4e4;}.h{opacity:0.1;isolation:isolate;}.i{fill:#cacaca;}</style></defs><g transform="translate(-214.064 -494)"><path class="a" d="M305.362,787.946s-9.032-22.231,18.062-38.9Z" transform="translate(-56.112 207.55)"/><path class="a" d="M280.352,796.932s-2.755-15.845-24.079-15.709Z" transform="translate(-42.209 198.16)"/><path class="a" d="M732.362,787.946s-9.032-22.231,18.063-38.9Z" transform="translate(-220.713 207.55)"/><path class="a" d="M707.352,796.932s-2.755-15.845-24.079-15.709Z" transform="translate(-206.811 198.16)"/><circle class="a" cx="78.505" cy="78.505" r="78.505" transform="translate(425.704 694.545)"/><path class="a" d="M563.67,394.03h.216l3.882,222.576h-8.2Z" transform="translate(-59.244 379.02)"/><circle class="a" cx="57.26" cy="57.26" r="57.26" transform="translate(615.5 776.026)"/><path class="a" d="M802.044,479.085h.157l2.831,162.341h-5.978Z" transform="translate(-129.127 354.2)"/><g transform="translate(266.413 696.403)"><path class="b" d="M528.852,563.256a7.552,7.552,0,0,1-6.373-9.668l-21.766-15.7,13.037-4.951L532.421,548.6a7.593,7.593,0,0,1-3.569,14.651Z" transform="translate(-484.845 -425.792)"/><path class="b" d="M318.4,686.368h6.911l3.288-26.658h-10.2Z" transform="translate(-258.431 -394.91)"/><path class="c" d="M461.217,798.964H483.5v-.282a8.674,8.674,0,0,0-8.673-8.674H461.217Z" transform="translate(-403.015 -500.806)"/><path class="b" d="M243.853,686.368h6.911l3.287-26.658h-10.2Z" transform="translate(-131.098 -394.91)"/><path class="c" d="M386.675,798.964H408.96v-.282a8.674,8.674,0,0,0-8.673-8.674H386.674Z" transform="translate(-275.682 -500.806)"/><path class="d" d="M298.292,486.711l14.647,80.1,5.123,63.623-16.633-.818-9.468-61.783-23.533-53.794-7,115.428-15.311.05-8.238-146.009Z" transform="translate(-190.876 -343.493)"/><path class="e" d="M425.506,451.049l20.53-8.169,23.552,2.695,19.966,11.037s-6.107,76.6,2.745,94.563c0,0-7.093,9.825-35.995,7.427,0,0-28.153-3.558-28.851-12.79s-.845-26.017-.845-26.017l-9.772-33.675Z" transform="translate(-380.381 -399.513)"/><path class="e" d="M401.067,463.745l8.025-1.474s8.539,3.744,8.451,14.9,15.085,48.561-3.068,50.129-13.409-26.525-13.409-26.525Z" transform="translate(-299.92 -405.171)"/><path class="e" d="M553.592,459.168l-6.511-4.753s-9.941,2.246-13.619,10.249c0,0-40.768,29.567-29.554,40.78s34.071,25.014,34.071,25.014l8.463-9.583-21-19.022,17.225-15.692Z" transform="translate(-501.956 -402.879)"/><path class="b" d="M439.656,405.815a16.855,16.855,0,1,0,33.709,0v-.647a16.853,16.853,0,1,0-33.7.647Z" transform="translate(-377.61 -383.684)"/><path class="c" d="M455.285,401.057a5.218,5.218,0,0,0-3.213.151c-2.1,1.074-1.617,4.119-2.764,6.129a15.585,15.585,0,0,0-1.488,2.312c-.3.863-.116,1.941-.591,2.773-.686,1.2-2.545,1.38-3.765.664a5.987,5.987,0,0,1-2.363-3.334,6.375,6.375,0,0,0-1.725-3.166,3.657,3.657,0,0,1-.944-.772,2.329,2.329,0,0,1-.224-1.32c0-2.915.453-5.175-.207-8-1.057-4.554-2.023-6.806,1.324-10.183a11.58,11.58,0,0,1,6.305-3.226c2.156-.354,5.331,2.657,7.513,2.588,5.551-.22,10.234-5.361,15.526-3.7a10.92,10.92,0,0,1,5.7,4.2c2.588,3.813,2.355,5.288,1.98,9.838a1.682,1.682,0,0,1-.289.97c-.194.233-.509.358-.7.6a1.471,1.471,0,0,0-.216,1.061,7.136,7.136,0,0,0,.513,2.156.888.888,0,0,1,.078.776.785.785,0,0,1-.431.293c-2.156.776-4.485-.72-6.793-.681s-4.5,1.583-6.879,1.246C459.533,402.1,457.4,401.407,455.285,401.057Z" transform="translate(-378.945 -381.643)"/><path class="f" d="M448.825,516.049a2.013,2.013,0,0,0,.446.115l18.716,2.613a2.014,2.014,0,0,0,2.168-1.278l16.11-41.919a2.023,2.023,0,0,0-1.448-2.7h0l-17.6-3.928a1.608,1.608,0,0,1-.391-.143l-17.119-8.95a2,2,0,0,0-.416-.162l-18.839-5.022a2.019,2.019,0,0,0-2.409,1.229L414,492.455a2.013,2.013,0,0,0,.266,1.934l4.858,6.524a2.02,2.02,0,0,0,.9.68l10.617,4.08a1.592,1.592,0,0,1,.221.1l17.691,10.139A2.025,2.025,0,0,0,448.825,516.049Z" transform="translate(-372.374 -402.934)"/><path class="g" d="M441.546,461.553l2.392.638,6.34,1.691.011,0,8.679,4.538,3.221,1.685h0l4.838,2.529.133.03,5.026,1.121,2.429.543,9.906,2.21-15.552,40.467-10.208-1.424-2.5-.35-5.335-.746-.062-.008-17.143-9.825-10.43-4.008-4.762-6.395,13.537-35.226Z" transform="translate(-373.802 -404.224)"/><rect class="f" width="55.25" height="2.462" transform="translate(106.721 82.722) rotate(-158.978)"/><rect class="f" width="55.25" height="2.462" transform="translate(103.777 90.382) rotate(-158.978)"/><rect class="f" width="55.25" height="2.462" transform="translate(97.83 105.857) rotate(-158.978)"/><path class="f" d="M333.873,366.753l-15.44,40.176,2.3.883,15.534-40.421Z" transform="translate(-266.129 -309.423)"/><path class="f" d="M275.738,376.453l3.171,8.822,1.1,3.059,2.564,7.14.55,1.526.55,1.534.724,2.013,5.2,14.465,1.351-3.516-4.238-11.8-.959-2.671-.14-.389-1.134-3.158-1.431-3.981-1.1-3.061-2.982-8.3h0Z" transform="translate(-190.572 -312.254)"/><path class="f" d="M291.042,384.028l-15.927,41.446,2.5.35,15.854-41.253Z" transform="translate(-192.658 -314.465)"/><ellipse class="b" cx="7.332" cy="7.332" rx="7.332" ry="7.332" transform="translate(94.462 94.587)"/></g><circle class="g" cx="130.29" cy="130.29" r="130.29" transform="translate(470.355 494)"/><path class="h" d="M905.011,156.936a130.3,130.3,0,0,1-217.1,137.9,130.3,130.3,0,1,0,217.1-137.9Z" transform="translate(-208.163 380.331)"/><path class="g" d="M697.917,183.975h-.358l-6.443,369.4h13.6Z" transform="translate(-97.63 440.315)"/><path class="i" d="M620.55,803.06h-462.6a.729.729,0,0,1,0-1.416h462.6a.729.729,0,0,1,0,1.416Z" transform="translate(56.665 192.201)"/></g></svg>