<svg xmlns="http://www.w3.org/2000/svg" width="511.388" height="490.624" viewBox="0 0 511.388 490.624"><defs><style>.a,.b{fill:#2e2e2e;}.a{opacity:0.299;}.c{fill:#f2545b;}.d{fill:#ccc;}.e{fill:#f2f2f2;}.f{fill:#fff;}.g{fill:#ffb8b8;}.h{fill:#2f2e41;}.i{fill:#d7d7d7;}</style></defs><g transform="translate(-21.248 0)"><path class="a" d="M378.881,427.761c.1,0,.155,0,.176,0h11.389v-1.679h-11.43c-.265.009-5.664.162-10.639-5.874-7.413-9-13.5-31.267-.4-86.274,17.611-73.966,2.923-139.31-4.21-163.971a8.188,8.188,0,0,1,7.878-10.454H541.725a8.225,8.225,0,0,1,6.633,3.376c3.021,4.156,7.168,12.141,9.762,26.578l1.653-.3c-2.651-14.751-6.932-22.97-10.057-27.268a9.908,9.908,0,0,0-7.991-4.068H371.642a9.868,9.868,0,0,0-9.491,12.6c7.1,24.533,21.708,89.539,4.189,163.116-13.281,55.781-6.9,78.534.8,87.8C372.213,427.451,377.805,427.761,378.881,427.761Z" transform="translate(-90.818 -157.825)"/><path class="a" d="M342.381,464.261c.1,0,.155,0,.176,0h11.389v-1.679h-11.43c-.266.008-5.664.162-10.639-5.874-7.413-9-13.5-31.267-.4-86.274,17.611-73.966,2.923-139.31-4.21-163.971A8.188,8.188,0,0,1,335.141,196H505.225a8.225,8.225,0,0,1,6.633,3.376c3.021,4.156,7.168,12.141,9.762,26.578l1.653-.3c-2.651-14.751-6.932-22.97-10.057-27.268a9.908,9.908,0,0,0-7.991-4.068H335.141a9.868,9.868,0,0,0-9.491,12.6c7.1,24.533,21.708,89.539,4.189,163.116-13.281,55.781-6.9,78.534.8,87.8C335.713,463.951,341.305,464.261,342.381,464.261Z" transform="translate(-23.672 -163.68)"/><path class="b" d="M303.035,500.761c.1,0,.155,0,.176,0H470.673a9.866,9.866,0,0,0,9.175-13.519c-6.076-15.181-14.257-51.6-.782-124.967,15.912-86.631,1.667-117.939-5.2-127.379a9.908,9.908,0,0,0-7.991-4.068H295.8a9.868,9.868,0,0,0-9.491,12.6c7.1,24.533,21.708,89.539,4.189,163.116-13.281,55.781-6.9,78.534.8,87.8C296.367,500.451,301.959,500.761,303.035,500.761ZM465.879,232.5a8.225,8.225,0,0,1,6.633,3.376c6.736,9.265,20.7,40.1,4.9,126.089-12.873,70.085-6.63,107.145.875,125.894a8.05,8.05,0,0,1-.82,7.611,8.2,8.2,0,0,1-6.8,3.606H303.17c-.264.013-5.664.162-10.639-5.874-7.413-9-13.5-31.267-.4-86.274,17.611-73.966,2.923-139.31-4.21-163.971A8.188,8.188,0,0,1,295.8,232.5Z" transform="translate(46.319 -169.534)"/><path class="c" d="M314.984,318.259h133.5a6.717,6.717,0,0,0,0-13.434h-133.5a6.717,6.717,0,0,0,0,13.434Z" transform="translate(56.06 -181.403)"/><path class="d" d="M314.984,352.259h133.5a6.717,6.717,0,0,0,0-13.434h-133.5a6.717,6.717,0,0,0,0,13.434Z" transform="translate(56.06 -186.856)"/><path class="d" d="M314.984,386.259h133.5a6.717,6.717,0,0,0,0-13.434h-133.5a6.717,6.717,0,0,0,0,13.434Z" transform="translate(56.06 -192.31)"/><path class="d" d="M326.984,420.259h133.5a6.717,6.717,0,0,0,0-13.434h-133.5a6.717,6.717,0,0,0,0,13.434Z" transform="translate(33.985 -197.763)"/><path class="d" d="M326.984,454.259h133.5a6.717,6.717,0,1,0,0-13.434h-133.5a6.717,6.717,0,1,0,0,13.434Z" transform="translate(33.985 -203.217)"/><path class="c" d="M314.984,284.259h62.97a6.717,6.717,0,0,0,0-13.434h-62.97a6.717,6.717,0,1,0,0,13.434Z" transform="translate(126.587 -175.95)"/><path class="b" d="M471.978,507.594c-1.355-5.739-7.723-7.62-12.929-7.409a55.183,55.183,0,0,0-9.749,1.543c-3.345.748-6.658,1.635-9.953,2.574-6.044,1.723-12.025,3.808-18.169,5.156-5.114,1.122-10.672,1.78-15.773.231a14.96,14.96,0,0,1-10.4-10.2c-1.257-4.762.469-9.968,5.083-12.145,4.208-1.984,9.523-.975,11.609,3.513,2.352,5.06,0,10.578-3.721,14.24a41.705,41.705,0,0,1-6.917,5.253,25.757,25.757,0,0,1-8.282,3.709c-4.857,1.037-10.643-.491-13.148-5.132a8.672,8.672,0,0,1-.984-3.389c-.148-1.614,2.372-1.6,2.519,0,.425,4.621,5.836,6.785,9.882,6.278a20.087,20.087,0,0,0,7.662-2.974,44.894,44.894,0,0,0,6.346-4.478c3.432-2.97,6.649-7.858,4.344-12.493-1.877-3.774-6.77-3.736-9.746-1.3-3.6,2.948-2.961,8.3-.584,11.8,2.632,3.876,7.4,5.5,11.9,5.676,4.887.19,9.734-.931,14.4-2.258,5.8-1.648,11.55-3.493,17.382-5.044,3.311-.881,6.647-1.676,10.018-2.294a33.061,33.061,0,0,1,9.714-.672c5.256.607,10.621,3.666,11.915,9.147.372,1.576-2.056,2.249-2.429.67Z" transform="translate(-22.276 -210.523)"/><path class="e" d="M859.177,666.11a384.558,384.558,0,0,1-3.625,49.415c-.079.575-.166,1.15-.246,1.725l-154.825-.865c-.455-.571-.9-1.149-1.336-1.734-1.445-1.936-2.8-3.927-4.044-5.986-5.978-9.922-8.714-21.538-5.972-29.553l.049-.125a14.062,14.062,0,0,1,2.745-4.769c6.253-7.038,18.894-5.865,30.367-.184-10.29-11.263-18.483-25.476-19.106-38.163-.61-12.374,5.86-21.214,12.878-28.727.23-.248.461-.49.691-.731.112-.124.23-.241.342-.366,5.476-5.725,11.859-11.369,21.1-10.686,10.134.75,21.369,9.238,29.246,19.129s13.113,21.112,18.419,32.07,11.061,22.182,19.587,31.543c-11.547-14.606-20.857-31.224-24.3-47.387s-.412-31.685,9.879-39.3a24.071,24.071,0,0,1,10.543-4.254c.444-.074.9-.134,1.353-.187,9.527-1.084,20.9,2.211,30.58,10.087,10.658,8.672,18.047,21.528,21.724,33.732S859.3,654.753,859.177,666.11Z" transform="translate(-666.814 -226.627)"/><path class="f" d="M876.642,734.329l-2.961-.017q-1.41-.882-2.833-1.742c-.587-.371-1.182-.728-1.776-1.092q-14.73-9-29.645-17.259t-29.952-15.777a1.241,1.241,0,0,1-.713-1.419.356.356,0,0,1,.049-.1c.14-.263.453-.372.909-.148,1.231.617,2.469,1.234,3.7,1.865q15.092,7.636,30.054,16.034t29.734,17.53c.207.126.415.259.622.385C874.769,733.167,875.7,733.748,876.642,734.329Z" transform="translate(-785.575 -244.25)"/><path class="f" d="M843.285,720.669l-1.831-.01c-.413-.578-.819-1.156-1.232-1.734q-14.552-20.406-29.1-40.812Q787.305,644.706,763.5,611.3a1.181,1.181,0,0,1-.206-.4c-.136-.493.226-.782.691-.731a1.391,1.391,0,0,1,.967.616q13.355,18.735,26.7,37.456L839.04,714.71c1,1.406,2.009,2.82,3.014,4.226C842.466,719.513,842.879,720.091,843.285,720.669Z" transform="translate(-714.045 -230.377)"/><path class="f" d="M749.892,706.266c-.093,3.085-.3,6.121-.564,9.129q-.077.863-.155,1.726l-1.921-.011c.059-.575.117-1.15.169-1.726.406-4.346.694-8.74.733-13.254a184.914,184.914,0,0,0-3.64-37.272,232.059,232.059,0,0,0-11.274-38.722,265.915,265.915,0,0,0-18.446-38.311,1.023,1.023,0,0,1-.169-.68c.079-.547.808-.71,1.353-.187a1.593,1.593,0,0,1,.275.348q1.329,2.285,2.61,4.584a265.733,265.733,0,0,1,17.655,38.446,230.968,230.968,0,0,1,10.511,38.78A182.427,182.427,0,0,1,749.892,706.266Z" transform="translate(-579.867 -226.604)"/><path class="b" d="M553.67,511.62a2.1,2.1,0,0,0-1.144-3.7,34.667,34.667,0,0,0-13.6,1.394l-44.764,13.825a4.618,4.618,0,0,0,2.725,8.824l44.764-13.825a34.668,34.668,0,0,0,12.014-6.516Z" transform="translate(-196.516 -213.952)"/><path class="g" d="M708.982,570.276a9.02,9.02,0,0,0,4.087-13.213l7.673-40.126-19.556-1.525-1.18,39.249a9.069,9.069,0,0,0,8.976,15.614Z" transform="translate(-535.322 -215.18)"/><path class="c" d="M699.613,534.975l19.918-92.762a14.693,14.693,0,1,0-28.731-6.168l-19.918,92.761a3.783,3.783,0,0,0,2.9,4.487l21.343,4.583A3.777,3.777,0,0,0,699.613,534.975Z" transform="translate(-512.986 -200.587)"/><path class="g" d="M355.08,564.479h10.293l4.9-39.7H355.078Z" transform="translate(-135.761 -84.171)"/><path class="h" d="M357.118,568.561H337.267v12.5h32.351a12.5,12.5,0,0,0-12.5-12.5Z" transform="translate(-120.153 -91.194)"/><path class="g" d="M396.081,563.479h10.293l4.9-39.7H396.078Z" transform="translate(-211.185 -84.01)"/><path class="h" d="M398.118,567.561H378.267v12.5h32.351A12.5,12.5,0,0,0,398.118,567.561Z" transform="translate(-195.577 -91.033)"/><path class="b" d="M679.633,694.214a3.753,3.753,0,0,0,1.357-2.571L692.957,560.01a3.779,3.779,0,0,0-3.621-4.118l-60.015-2.251a3.779,3.779,0,0,0-3.917,3.914l4.8,131.127a3.785,3.785,0,0,0,3.434,3.624l12.1,1.1a3.778,3.778,0,0,0,4.112-3.512l5.554-83.3a1.206,1.206,0,0,1,1.256-1.175h.005a1.206,1.206,0,0,1,1.253,1.185l4.97,83.865a3.761,3.761,0,0,0,3.4,3.536l10.571,1.058A3.753,3.753,0,0,0,679.633,694.214Z" transform="translate(-447.981 -221.311)"/><ellipse class="g" cx="20.622" cy="20.622" rx="20.622" ry="20.622" transform="translate(187.945 163.221)"/><path class="c" d="M694.793,537.705a3.746,3.746,0,0,0,.884-3.089c-3.807-23.141-1.661-57.155.809-81.616a37.111,37.111,0,0,0-15.315-33.838l-10.77-9.231a3.837,3.837,0,0,0-2.567-.908l-26.755.764a3.764,3.764,0,0,0-2.564,1.106l-4.134,9.155-.043.031A37,37,0,0,0,619.3,451.726l3.938,81.388a3.8,3.8,0,0,0,3.65,3.594l64.941,2.282.125,0A3.769,3.769,0,0,0,694.793,537.705Z" transform="translate(-446.514 -198.116)"/><path class="g" d="M581.954,515.617a9.02,9.02,0,0,0-10.383-9.137L538.1,483.056l-9.395,17.219,35.328,17.141a9.069,9.069,0,0,0,17.921-1.8Z" transform="translate(-255.78 -209.99)"/><path class="c" d="M628.35,510.761a3.756,3.756,0,0,0,2.473-1.5l12.917-17.6a3.784,3.784,0,0,0-.81-5.282l-76.484-56.139a14.693,14.693,0,1,0-17.388,23.69l76.484,56.139a3.752,3.752,0,0,0,2.227.733,3.88,3.88,0,0,0,.581-.044Z" transform="translate(-330.344 -201.062)"/><path class="h" d="M663.733,389.277c-2.735-3.353-2.435-8.461-.24-12.189s5.921-6.3,9.755-8.3,7.907-3.583,11.515-5.972,3.451-12.5,4.411-16.719l-2.291.763c.881-1.127,1.163-4.456,2.044-5.582-2.589.256-4.58,2.714-7.169,2.97l1.494-4.01c-8.878-.547-14.4,5.622-23.276,5.075-4.4-.271-9.176-.443-12.792,2.076-3.143,2.189-4.733,5.978-5.777,9.663-2.241,7.912-2.589,16.774,1.281,24.029s12.793,12.144,20.587,9.524Z" transform="translate(-456.222 -187.077)"/><path class="i" d="M831.828,741.5H534.973a.842.842,0,0,1,0-1.679H831.828a.842.842,0,0,1,0,1.679Z" transform="translate(-511.038 -251.174)"/></g></svg>