<svg xmlns="http://www.w3.org/2000/svg" width="600.732" height="541.827" viewBox="0 0 600.732 541.827"><defs><style>.a{fill:#f2f2f2;}.b{fill:#f2545b;}.c{fill:#3f3d56;}.d{opacity:0.2;}.e{fill:#2f2e41;}.f{fill:#a0616a;}</style></defs><ellipse class="a" cx="141.087" cy="141.087" rx="141.087" ry="141.087" transform="translate(175.16 234.704)"/><ellipse class="b" cx="133.885" cy="18.29" rx="133.885" ry="18.29" transform="translate(202.294 505.247)"/><ellipse class="c" cx="9.477" cy="4.6" rx="9.477" ry="4.6" transform="translate(339.864 155.96) rotate(-161.42)"/><path class="b" d="M629.6,278.928l-49.715-22.652S495.656,224.44,423.6,302.151c0,0,32.291-20.729,56.767,6.653,0,0,46.057-12.46,84.707,33.322,0,0,60.451,9.154,85.629,41.235,0,0,28.069-4.317,39.241,31.266a1.067,1.067,0,0,0,1.765.44h0a1.06,1.06,0,0,0,.3-.56C693.062,409.008,705.407,335.65,629.6,278.928Z" transform="translate(-278.038 -109.381)"/><path class="d" d="M629.6,278.928l-49.715-22.652S495.656,224.44,423.6,302.151c0,0,32.291-20.729,56.767,6.653,0,0,46.057-12.46,84.707,33.322,0,0,60.451,9.154,85.629,41.235,0,0,28.069-4.317,39.241,31.266a1.067,1.067,0,0,0,1.765.44h0a1.06,1.06,0,0,0,.3-.56C693.062,409.008,705.407,335.65,629.6,278.928Z" transform="translate(-278.038 -109.381)"/><path class="e" d="M433.126,384.771l-20.7,3.451-6.9-32.778,16.676-6.9Z" transform="translate(-96.709 -121.367)"/><ellipse class="f" cx="17.826" cy="17.826" rx="17.826" ry="17.826" transform="translate(290.126 221.138)"/><path class="f" d="M577.073,416.421s-1.725,21.852,11.5,23.577-11.5,40.828-17.826,40.253S552.922,437.7,552.922,437.7s14.951-10.351,9.776-19.552Z" transform="translate(-261.358 -167.394)"/><path class="f" d="M553.889,537.385s-2.3,16.676-9.2,16.676,4.6-18.977,4.6-18.977Z" transform="translate(-216.034 -208.714)"/><path class="f" d="M706.747,564.2S689.5,578.575,691.8,583.176,709.047,578,710.2,566.5Z" transform="translate(-469.525 -218.852)"/><path class="f" d="M527.2,648.9l10.926,40.828L550.2,739.178H538.7s-4.025-15.526-11.5-23.577c0,0-7.476-12.651-7.476-21.277L501.9,652.346Z" transform="translate(-185.896 -248.345)"/><path class="f" d="M634.262,648.431l-3.45,38.528s.575,27.6,0,33.928a126.825,126.825,0,0,0,0,15.526H620.46s-9.776-33.928-6.9-52.329l-4.025-43.128Z" transform="translate(-340.11 -245.58)"/><path class="e" d="M569.16,473.257s15.493-12.278,11.484-29.428c0,0,15.543.676,21.868,7s-1.725,27.6-1.725,27.6-13.8,23-11.5,33.352,27.027,64.98,18.976,68.43-56.929,15.526-81.656-4.6c0,0-6.326-56.929,18.977-75.331V485.907s-4.6-4.025-2.3-14.376c0,0-9.776-17.826-4.025-21.277s18.96-8.507,18.96-8.507S557.084,467.506,569.16,473.257Z" transform="translate(-261.207 -176.213)"/><path class="e" d="M495.393,455.663s7.476-1.15,14.951,9.776,27.027,28.177,17.826,36.8-33.928,14.376-33.928,14.376l-5.75-10.351,24.727-12.076-20.7-15.526Z" transform="translate(-157.538 -181.046)"/><path class="e" d="M668.465,455.682s-8.051,0-11.5,9.776-23.577,43.128-23.577,43.128l-11.5,17.826,8.051,9.2,22.427-25.3,21.277-35.078Z" transform="translate(-387.539 -181.065)"/><path class="e" d="M491.279,785.646h16.1l3.45,28.177s9.2,14.951-4.6,13.226-9.2-17.251-9.2-17.251l-3.45-5.751-1.15,12.076-1.15-.575V802.322S484.953,796.572,491.279,785.646Z" transform="translate(-140.773 -295.963)"/><path class="e" d="M607.6,785.031l14.951-1.15,2.875,32.2s1.725,12.076-8.626,10.351-6.9-11.5-6.9-11.5V797.107Z" transform="translate(-330.129 -295.348)"/><path class="e" d="M586.376,370.835s8.377,2.792,8.8,13.821a19.558,19.558,0,0,1-.581,5.237c-.472,2-.775,6.3,2.881,11.922a118.016,118.016,0,0,1,6.7,11.521l.026.052-9.2,1.15-1.956-15.251a75.941,75.941,0,0,0-6.031-21.41l-.064-.142s-4.025,7.476-12.076,7.476l2.875-2.875s-12.651,5.175-17.251,5.175c0,0-3.45,2.3,0,5.75s10.351,11.5,6.326,17.826-.575,8.051-.575,8.051l-6.326-3.45-2.875-1.725v2.3L542.1,414.538s-4.025-.575,4.6-10.351c0,0,2.278-3.8,1.281-7.07a16.515,16.515,0,0,1-.628-7.724C549.284,378.613,556.866,357.18,586.376,370.835Z" transform="translate(-265.485 -149.984)"/><path class="c" d="M602.512,510.369c-5.69-5.786.612-17.77,1.1-18.681l64.985-132.7a1.692,1.692,0,1,1,3.039,1.488L606.623,493.242l-.018.033c-.065.119-6.339,12.036-.751,15.45,6.018,3.68,13.037-2.281,13.107-2.342a1.692,1.692,0,1,1,2.212,2.56c-.363.314-8.982,7.623-17.084,2.669A8.2,8.2,0,0,1,602.512,510.369Z" transform="translate(-371.543 -147.065)"/><path class="b" d="M619.059,264.819l-48.15-21.939s-81.574-30.833-151.356,44.432c0,0,31.274-20.076,54.98,6.443,0,0,44.607-12.068,82.04,32.273,0,0,58.548,8.866,82.933,39.937,0,0,28.031-4.311,38.495,31.908l1.448-1.423S695.387,321.929,619.059,264.819Z" transform="translate(-262.853 -104.787)"/><path class="c" d="M482.558,279.671s23.577,79.356,20.7,101.208" transform="translate(-126.589 -119.776)"/><path class="c" d="M590.109,262.3S560.4,329.4,552.922,335.15" transform="translate(-259.058 -113.725)"/><path class="c" d="M684.527,246.146s-76.481,46-96.607,51.179" transform="translate(-376.286 -108.102)"/><path class="c" d="M416.109,750.848c.138-.226,3.4-5.667,4.527-16.966,1.036-10.366.37-27.839-8.692-52.212-17.167-46.174,3.956-83.429,4.172-83.8l-1.042-.6c-.055.094-5.505,9.593-8.725,24.718a107.836,107.836,0,0,0,4.466,60.107c17.138,46.095,4.4,67.915,4.266,68.131Z" transform="translate(7.115 -230.366)"/><ellipse class="c" cx="7.829" cy="7.829" rx="7.829" ry="7.829" transform="translate(422.107 349.135)"/><ellipse class="c" cx="7.829" cy="7.829" rx="7.829" ry="7.829" transform="translate(397.416 378.042)"/><ellipse class="b" cx="7.829" cy="7.829" rx="7.829" ry="7.829" transform="translate(414.278 397.313)"/><ellipse class="b" cx="7.829" cy="7.829" rx="7.829" ry="7.829" transform="translate(393.802 413.573)"/><ellipse class="c" cx="7.829" cy="7.829" rx="7.829" ry="7.829" transform="translate(420.301 438.867)"/><path class="c" d="M432.5,815.323s7.829-19.271-15.658-33.725Z" transform="translate(-14.005 -294.553)"/><path class="c" d="M356.214,821.949s3.563-20.493,31.14-20.318Z" transform="translate(71.909 -301.529)"/><path class="c" d="M140.493,0,112.936,15.077l53.393,35.362L191.871,33.59Z" transform="translate(335.252)"/><path class="c" d="M27.247,73.493l58.719,37.855L58.7,127.555,0,88.37Z" transform="translate(514.767 -25.591)"/><path class="b" d="M256.356,78.619A23.144,23.144,0,0,1,268.813,94.4a6.84,6.84,0,0,1-2.243,6.842l-16.975,14.336a7.868,7.868,0,0,1-8.9.858c-6.9-3.827-17.985-11.862-13.036-22.036a7.034,7.034,0,0,1,2.451-2.783L249.03,79.1a7.385,7.385,0,0,1,7.325-.482Z" transform="translate(274.851 -49.506)"/><ellipse class="c" cx="27.923" cy="18.963" rx="27.923" ry="18.963" transform="matrix(-0.597, -0.802, 0.802, -0.597, 496.463, 96.705)"/><path class="d" d="M315.564,144.223c-3.442,2.564-11.628-2.491-18.986-11.457q-.978-1.189-1.933-2.469-.7-.941-1.349-1.881c-6.823-9.859-9.52-19.529-6-22.152,3.55-2.645,12.14,2.81,19.67,12.3q.631.8,1.249,1.627a64.444,64.444,0,0,1,3.948,5.957C317.02,134.478,318.6,141.962,315.564,144.223Z" transform="translate(188.077 -59.16)"/><path class="b" d="M321.732,133.074l-15.59,6.619-11.154,4.735-1.65-2.226,9.522-6.859,13.674-9.853q.631.8,1.249,1.627A64.456,64.456,0,0,1,321.732,133.074Z" transform="translate(178.512 -66.088)"/><ellipse class="b" cx="3.389" cy="3.389" rx="3.389" ry="3.389" transform="translate(467.088 75.36)"/><path class="b" d="M378.778,192.1a1.617,1.617,0,0,0-.767-.391c-18.252-3.771-29.736-14.28-35.109-32.126a1.624,1.624,0,0,0-3.109.936c5.668,18.828,18.305,30.391,37.561,34.37a1.624,1.624,0,0,0,1.423-2.789Z" transform="translate(90.705 -77.558)"/><path class="b" d="M363.1,174.72a1.615,1.615,0,0,0-.767-.391c-13.685-2.828-22.3-10.707-26.324-24.088a1.624,1.624,0,1,0-3.109.936c4.343,14.425,14.024,23.284,28.777,26.332a1.624,1.624,0,0,0,1.424-2.789Z" transform="translate(110.872 -74.304)"/><path class="b" d="M397.345,210.2a1.614,1.614,0,0,0-.767-.391c-18.214-3.763-38.132-21.989-43.494-39.8a1.624,1.624,0,0,0-3.11.936c5.664,18.814,26.7,38.067,45.946,42.043a1.624,1.624,0,0,0,1.423-2.789Z" transform="translate(65.501 -81.188)"/><path class="c" d="M739.007,0l27.557,15.077L713.172,50.439,687.63,33.59Z" transform="translate(-614.02)"/><path class="c" d="M848.5,73.493l-58.718,37.855,27.269,16.207,58.7-39.185Z" transform="translate(-789.779 -25.591)"/><path class="b" d="M920.9,78.619A23.144,23.144,0,0,0,908.44,94.4a6.84,6.84,0,0,0,2.243,6.842l16.975,14.336a7.868,7.868,0,0,0,8.9.858c6.9-3.827,17.986-11.862,13.036-22.036a7.034,7.034,0,0,0-2.451-2.783L928.223,79.1A7.385,7.385,0,0,0,920.9,78.619Z" transform="translate(-851.371 -49.506)"/><ellipse class="c" cx="18.963" cy="27.923" rx="18.963" ry="27.923" transform="matrix(-0.802, -0.597, 0.597, -0.802, 104.271, 96.706)"/><path class="d" d="M867.682,144.223c3.442,2.564,11.628-2.491,18.986-11.457q.977-1.189,1.933-2.469.7-.941,1.349-1.881c6.823-9.859,9.52-19.529,6-22.152-3.55-2.645-12.14,2.81-19.67,12.3q-.631.8-1.249,1.627a64.424,64.424,0,0,0-3.948,5.957C866.225,134.478,864.648,141.962,867.682,144.223Z" transform="translate(-770.59 -59.16)"/><path class="b" d="M863.1,133.074l15.59,6.619,11.154,4.735,1.649-2.226-9.522-6.859L868.3,125.49q-.631.8-1.249,1.627a64.428,64.428,0,0,0-3.948,5.957Z" transform="translate(-762.611 -66.088)"/><ellipse class="b" cx="3.389" cy="3.389" rx="3.389" ry="3.389" transform="translate(126.867 75.36)"/><path class="b" d="M800.075,192.1a1.618,1.618,0,0,1,.767-.391c18.252-3.771,29.736-14.28,35.109-32.126a1.624,1.624,0,0,1,3.11.936c-5.668,18.828-18.305,30.391-37.561,34.37a1.624,1.624,0,0,1-1.423-2.789Z" transform="translate(-668.826 -77.558)"/><path class="b" d="M820.444,174.72a1.615,1.615,0,0,1,.767-.391c13.685-2.828,22.3-10.707,26.324-24.088a1.624,1.624,0,1,1,3.109.936c-4.343,14.425-14.024,23.284-28.777,26.332a1.624,1.624,0,0,1-1.424-2.789Z" transform="translate(-693.686 -74.304)"/><path class="b" d="M777.029,210.2a1.614,1.614,0,0,1,.767-.391c18.214-3.763,38.132-21.989,43.494-39.8a1.624,1.624,0,0,1,3.11.936c-5.664,18.814-26.7,38.067-45.946,42.043a1.624,1.624,0,0,1-1.424-2.789Z" transform="translate(-639.142 -81.188)"/></svg>